<svg width="180" height="180" viewBox="0 0 180 180" fill="none" xmlns="http://www.w3.org/2000/svg">
  <g stroke="#FFFFFF" stroke-opacity="0.12" stroke-width="1.4" stroke-linecap="round" stroke-linejoin="round">
    <path d="M22 34c7 3 13 0 19-11" />
    <circle cx="92" cy="30" r="9" />
    <path d="M142 40l15-15m-10 3 9-9" />
    <path d="M42 108c2 10 8 16 18 18" />
    <path d="M96 112l8 10 8-10" />
    <path d="M132 150c4-8 10-12 18-12" />
    <path d="M52 158c6 6 14 6 20 0" />
    <path d="M150 76c-7 3-12 8-12 16" />
    <path d="M88 76l-4 8 4 8" />
    <circle cx="26" cy="150" r="4" />
    <circle cx="150" cy="24" r="5" />
    <path d="M70 34l6 6 6-6" />
    <path d="M30 86c4-2 7-6 8-12" />
    <path d="M122 108c8 0 14-5 16-14" />
    <path d="M40 48l6-6 6 6" />
    <path d="M118 54c5 1 9-1 12-6" />
    <path d="M76 144c3-6 8-9 14-9" />
  </g>
</svg>

