<?xml version="1.0" encoding="UTF-8"?>
<svg width="2400" height="1600" viewBox="0 0 2400 1600" fill="none" xmlns="http://www.w3.org/2000/svg">
  <rect width="2400" height="1600" fill="#050B1A"/>
  <g filter="url(#blurGlow)">
    <path d="M400 200C660 160 880 300 940 520C1020 820 660 940 460 940C260 940 200 800 200 620C200 460 280 220 400 200Z" fill="url(#paintCreative)"/>
    <path d="M2100 420C1860 220 1580 260 1420 520C1220 860 1560 1140 1890 1100C2180 1066 2340 780 2100 420Z" fill="url(#paintTech)"/>
    <path d="M1080 1240C1220 940 1600 960 1760 1180C1880 1340 1780 1520 1530 1580C1280 1640 980 1520 1080 1240Z" fill="url(#paintFusion)"/>
  </g>
  <g opacity="0.55">
    <path d="M340 380C540 340 760 500 840 700C900 850 800 960 640 980C480 1000 360 900 300 760C240 620 200 420 340 380Z" fill="url(#paintCreativeLight)"/>
    <path d="M2060 520C1920 360 1660 360 1510 520C1360 680 1400 920 1660 980C1920 1040 2160 800 2060 520Z" fill="url(#paintTechLight)"/>
  </g>
  <g opacity="0.4">
    <circle cx="520" cy="460" r="160" fill="url(#paintCircle1)"/>
    <circle cx="1980" cy="520" r="220" fill="url(#paintCircle2)"/>
    <circle cx="1460" cy="1220" r="240" fill="url(#paintCircle3)"/>
  </g>
  <g opacity="0.3">
    <path d="M360 200L420 80L500 220L640 160L600 320L740 340L620 420L700 560L540 500L520 640L420 520L300 620L320 460L180 440L300 360L220 220L360 200Z" fill="url(#paintPolygonL)" filter="url(#glowWarm)"/>
    <path d="M2080 340L2140 220L2240 360L2380 300L2320 460L2460 480L2340 560L2420 700L2260 640L2240 780L2140 660L2020 760L2040 600L1900 580L2020 500L1940 360L2080 340Z" fill="url(#paintPolygonR)" filter="url(#glowCool)"/>
  </g>
  <g opacity="0.55" filter="url(#techGrid)">
    <rect x="880" y="160" width="760" height="1280" fill="url(#paintMatrix)" opacity="0.6"/>
  </g>
  <g opacity="0.28">
    <path d="M200 1200C500 1000 900 980 1200 1080C1500 1180 1860 1180 2140 1000" stroke="url(#paintSpline1)" stroke-width="18" stroke-linecap="round" stroke-linejoin="round"/>
    <path d="M280 320C700 180 1240 260 1620 520C1960 740 2060 1060 1880 1360" stroke="url(#paintSpline2)" stroke-width="12" stroke-dasharray="60 40" stroke-linecap="round" stroke-linejoin="round"/>
    <path d="M2200 240C1800 440 1400 540 1040 420C760 328 560 120 460 -60" stroke="url(#paintSpline3)" stroke-width="10" stroke-linecap="round" stroke-linejoin="round"/>
  </g>
  <g opacity="0.4">
    <circle cx="1920" cy="240" r="14" fill="#4ADEFF"/>
    <circle cx="1820" cy="340" r="10" fill="#4ADEFF"/>
    <circle cx="1750" cy="230" r="8" fill="#22D3EE"/>
    <circle cx="1840" cy="420" r="12" fill="#22D3EE"/>
    <circle cx="520" cy="880" r="12" fill="#FDE68A"/>
    <circle cx="640" cy="760" r="8" fill="#FDE68A"/>
    <circle cx="740" cy="680" r="10" fill="#FB7185"/>
    <circle cx="620" cy="600" r="9" fill="#FB7185"/>
  </g>
  <defs>
    <filter id="blurGlow" x="0" y="0" width="2400" height="1600" filterUnits="userSpaceOnUse" color-interpolation-filters="sRGB">
      <feGaussianBlur stdDeviation="80"/>
    </filter>
    <filter id="glowWarm" x="140" y="60" width="660" height="720" filterUnits="userSpaceOnUse" color-interpolation-filters="sRGB">
      <feGaussianBlur stdDeviation="15"/>
    </filter>
    <filter id="glowCool" x="1860" y="200" width="660" height="720" filterUnits="userSpaceOnUse" color-interpolation-filters="sRGB">
      <feGaussianBlur stdDeviation="15"/>
    </filter>
    <filter id="techGrid" x="840" y="120" width="840" height="1360" filterUnits="userSpaceOnUse" color-interpolation-filters="sRGB">
      <feGaussianBlur stdDeviation="20"/>
    </filter>
    <linearGradient id="paintCreative" x1="240" y1="220" x2="780" y2="880" gradientUnits="userSpaceOnUse">
      <stop stop-color="#FF8BD7"/>
      <stop offset="0.38" stop-color="#FF7A6E"/>
      <stop offset="1" stop-color="#A855F7"/>
    </linearGradient>
    <linearGradient id="paintCreativeLight" x1="260" y1="360" x2="800" y2="960" gradientUnits="userSpaceOnUse">
      <stop stop-color="#FFB4E6"/>
      <stop offset="0.58" stop-color="#FCA5A5"/>
      <stop offset="1" stop-color="#C4B5FD" stop-opacity="0.7"/>
    </linearGradient>
    <linearGradient id="paintPolygonL" x1="220" y1="200" x2="760" y2="620" gradientUnits="userSpaceOnUse">
      <stop stop-color="#FF78A5" stop-opacity="0.8"/>
      <stop offset="0.52" stop-color="#F97316" stop-opacity="0.7"/>
      <stop offset="1" stop-color="#F59E0B" stop-opacity="0.6"/>
    </linearGradient>
    <radialGradient id="paintCircle1" cx="0" cy="0" r="1" gradientUnits="userSpaceOnUse" gradientTransform="translate(520 460) rotate(45) scale(190)">
      <stop stop-color="#FDE68A"/>
      <stop offset="0.52" stop-color="#FB7185"/>
      <stop offset="1" stop-color="#A855F7" stop-opacity="0"/>
    </radialGradient>
    <linearGradient id="paintSpline1" x1="200" y1="1160" x2="2140" y2="1040" gradientUnits="userSpaceOnUse">
      <stop stop-color="#F472B6" stop-opacity="0.86"/>
      <stop offset="0.52" stop-color="#8B5CF6" stop-opacity="0.7"/>
      <stop offset="1" stop-color="#22D3EE" stop-opacity="0.88"/>
    </linearGradient>
    <linearGradient id="paintSpline2" x1="280" y1="300" x2="1880" y2="1320" gradientUnits="userSpaceOnUse">
      <stop stop-color="#FFEDD5"/>
      <stop offset="0.45" stop-color="#F472B6" stop-opacity="0.7"/>
      <stop offset="1" stop-color="#3B82F6" stop-opacity="0.9"/>
    </linearGradient>
    <linearGradient id="paintSpline3" x1="2260" y1="220" x2="460" y2="-40" gradientUnits="userSpaceOnUse">
      <stop stop-color="#22D3EE" stop-opacity="0.9"/>
      <stop offset="0.55" stop-color="#1E40AF" stop-opacity="0.72"/>
      <stop offset="1" stop-color="#7C3AED" stop-opacity="0.6"/>
    </linearGradient>
    <linearGradient id="paintTech" x1="1420" y1="360" x2="2200" y2="1040" gradientUnits="userSpaceOnUse">
      <stop stop-color="#38BDF8"/>
      <stop offset="0.42" stop-color="#0EA5E9"/>
      <stop offset="1" stop-color="#1D4ED8"/>
    </linearGradient>
    <linearGradient id="paintTechLight" x1="1500" y1="480" x2="2080" y2="960" gradientUnits="userSpaceOnUse">
      <stop stop-color="#BAE6FD"/>
      <stop offset="0.55" stop-color="#67E8F9" stop-opacity="0.75"/>
      <stop offset="1" stop-color="#3B82F6" stop-opacity="0.6"/>
    </linearGradient>
    <linearGradient id="paintPolygonR" x1="1980" y1="320" x2="2440" y2="720" gradientUnits="userSpaceOnUse">
      <stop stop-color="#4ADEFF" stop-opacity="0.85"/>
      <stop offset="0.52" stop-color="#60A5FA" stop-opacity="0.7"/>
      <stop offset="1" stop-color="#1E3A8A" stop-opacity="0.6"/>
    </linearGradient>
    <linearGradient id="paintMatrix" x1="880" y1="160" x2="1640" y2="1440" gradientUnits="userSpaceOnUse">
      <stop stop-color="#0EA5E9" stop-opacity="0.8"/>
      <stop offset="0.5" stop-color="#22D3EE" stop-opacity="0.68"/>
      <stop offset="1" stop-color="#6366F1" stop-opacity="0.6"/>
    </linearGradient>
    <radialGradient id="paintCircle2" cx="0" cy="0" r="1" gradientUnits="userSpaceOnUse" gradientTransform="translate(1980 520) rotate(90) scale(260)">
      <stop stop-color="#22D3EE" stop-opacity="0.95"/>
      <stop offset="0.55" stop-color="#38BDF8" stop-opacity="0.65"/>
      <stop offset="1" stop-color="#1D4ED8" stop-opacity="0"/>
    </radialGradient>
    <radialGradient id="paintCircle3" cx="0" cy="0" r="1" gradientUnits="userSpaceOnUse" gradientTransform="translate(1460 1220) rotate(30) scale(280)">
      <stop stop-color="#A855F7" stop-opacity="0.9"/>
      <stop offset="0.4" stop-color="#6366F1" stop-opacity="0.7"/>
      <stop offset="1" stop-color="#0EA5E9" stop-opacity="0"/>
    </radialGradient>
    <linearGradient id="paintFusion" x1="1100" y1="1220" x2="1780" y2="1440" gradientUnits="userSpaceOnUse">
      <stop stop-color="#EC4899"/>
      <stop offset="0.45" stop-color="#8B5CF6"/>
      <stop offset="1" stop-color="#14B8A6"/>
    </linearGradient>
  </defs>
</svg>

